<svg
          xmlns="http://www.w3.org/2000/svg"
          xmlnsXlink="http://www.w3.org/1999/xlink"
          id="Layer_1"
          version="1.1"
          viewBox="0 0 250 250"
        >
          <defs>
            <style>
              {`
        .svg-bb2b08e457814408f0a82d9145980532 .st0 {fill: none;}
        .svg-bb2b08e457814408f0a82d9145980532 .st1 {clip-path: url(#clippath-1);}
        .svg-bb2b08e457814408f0a82d9145980532 .st2, .svg-bb2b08e457814408f0a82d9145980532 .st3 {fill: #292724;}
        .svg-bb2b08e457814408f0a82d9145980532 .st3 {fill-rule: evenodd;}
        .svg-bb2b08e457814408f0a82d9145980532 .st4 {clip-path: url(#clippath);}
      `}
            </style>
            <clipPath id="clippath">
              <rect
                className="st0"
                x="-199.9"
                y="-126.1"
                width="649.8"
                height="502.2"
              />
            </clipPath>
            <clipPath id="clippath-1">
              <rect
                className="st0"
                x="-199.9"
                y="-126.1"
                width="649.8"
                height="502.2"
              />
            </clipPath>
          </defs>
          <g class="st4">
            <g class="st1">
              <path
                class="st2"
                d="M135.5,186.7l1.2-4.5c.9-3.5,0-4.8-3.1-4.8h-7.9l2-7.3h6.8c3.2,0,4.9-1.4,5.9-4.8l1-3.7c.9-3.5,0-4.8-3.2-4.8h-5.1c-3.6,0-5.1,1-6.2,4.8l-.8,2.7h-9.2l.9-3.3c2.1-7.9,6.2-11.8,15.5-11.8h8.9c7.5,0,10.7,4.4,8.7,11.3l-1.3,4.6c-1.2,4.6-3.6,7.2-7.2,8.4,3.3,1.2,5,3.9,3.6,8.8l-1.5,5.4c-2,6.9-6.1,11.3-15,11.3h-11.4c-7.9,0-11.2-3.9-9-11.8l1-3.6h9.3l-.9,3.2c-1,3.8,0,4.6,3.6,4.6h7.6c3.1,0,4.9-1.2,5.8-4.6"
              ></path>
              <polygon
                class="st2"
                points="165.6 158.8 158.3 161.6 160.8 152.5 168.1 149.5 177.3 149.5 163.8 198.5 154.5 198.5 165.6 158.8"
              ></polygon>
              <path
                class="st2"
                d="M197.3,198.9h-10.2c-7.9,0-11.1-4.4-8.9-12.2l7.1-25.5c2.2-7.9,6.5-12.2,15.6-12.2h9.5c7.9,0,11,4.4,9,11.4l-.7,2.6h-9.2l.5-1.9c.9-3.1-.2-4.5-3.7-4.5h-5.8c-3.5,0-5.2,1.4-6.3,5.3l-1.9,6.9h14.2c7.2,0,10,4.4,7.9,11.9l-1.6,6.1c-2.2,7.8-6.4,12.1-15.6,12.1M191.1,191.4h6.5c3.3,0,5.2-1.3,6.2-4.8l1.4-5.2c1.2-3.8.2-5.2-3.3-5.2h-11.4l-2.7,10c-1.1,3.8-.2,5.2,3.3,5.2"
              ></path>
              <polygon
                class="st2"
                points="170.3 69.1 110.1 69.1 115.1 51.1 175.3 51.1 170.3 69.1"
              ></polygon>
              <polygon
                class="st2"
                points="129.5 99.5 161.8 99.5 166.8 81.5 106.7 81.5 92.4 132.9 120.3 132.9 129.5 99.5"
              ></polygon>
              <path
                class="st3"
                d="M197.7,114.3c-.7-.4-1.2-1-1.4-1.7,0-.2,0-.4,0-.6,0-.2,0-.4,0-.6l10.9-39.3c.3-1.1.9-1.9,1.7-2.4.8-.4,2.2-.7,4.1-.7h30l5-18h-42.1c-7.7,0-13,.9-16.1,2.6-3.1,1.7-5.3,4.8-6.5,9.3l-15.5,56c-.2.8-.4,1.7-.4,2.5,0,.9,0,1.7.2,2.5.7,2.7,2.5,4.9,5.4,6.5,2.8,1.6,6.4,2.4,10.6,2.4h44.1l5-18h-32.2c-1.1,0-2-.2-2.7-.6"
              ></path>
              <path
                class="st3"
                d="M31.5,51.1L12.7,119c-.2.8-.4,1.7-.4,2.5,0,.9,0,1.7.2,2.5.7,2.7,2.5,4.9,5.4,6.5,2.8,1.6,6.4,2.4,10.6,2.4h31.4c7.7,0,13-.9,16.1-2.6,3.1-1.7,5.3-4.8,6.5-9.3l19.4-69.9h-27.8l-16.9,60.8c-.3,1.1-.9,1.9-1.7,2.4-.8.4-2.2.7-4.1.7h-4.8c-1.1,0-2-.2-2.7-.6-.7-.4-1.2-1-1.4-1.7,0-.2,0-.4,0-.6,0-.2,0-.4,0-.6l16.7-60.3h-27.8Z"
              ></path>
              <polygon
                class="st2"
                points="108.8 149.2 4.4 149.2 1.9 158.2 106.3 158.2 108.8 149.2"
              ></polygon>
            </g>
          </g>
        </svg>